<svg xmlns="http://www.w3.org/2000/svg" width="25.464" height="23.149" viewBox="0 0 25.464 23.149">
  <g id="icons" transform="translate(2 -8)">
    <g id="dashboard" transform="translate(-2 8)">
      <path id="Path_152" data-name="Path 152" d="M5.63,18H3.315a2.315,2.315,0,0,0,0,4.63H5.63a2.315,2.315,0,0,0,0-4.63Z" transform="translate(-1 0.519)" fill="#979797"/>
      <path id="Path_153" data-name="Path 153" d="M13.63,16H11.315A2.322,2.322,0,0,0,9,18.315V20.63a2.322,2.322,0,0,0,2.315,2.315H13.63a2.322,2.322,0,0,0,2.315-2.315V18.315A2.322,2.322,0,0,0,13.63,16Z" transform="translate(0.259 0.204)" fill="#979797"/>
      <path id="Path_154" data-name="Path 154" d="M21.63,12H19.315A2.322,2.322,0,0,0,17,14.315v6.945a2.322,2.322,0,0,0,2.315,2.315H21.63a2.322,2.322,0,0,0,2.315-2.315V14.315A2.322,2.322,0,0,0,21.63,12Z" transform="translate(1.519 -0.426)" fill="#979797"/>
      <path id="Path_155" data-name="Path 155" d="M25.306,2H17.667a1.158,1.158,0,0,0-.81,1.968l2.2,2.2c-4.282,4.861-10.417,8.565-16.9,8.565a1.157,1.157,0,1,0,0,2.315c7.755,0,14.931-2.2,20.139-7.639l2.083,2.083a1.158,1.158,0,0,0,1.968-.81V3.157A.958.958,0,0,0,25.306,2Z" transform="translate(-1 -2)" fill="#979797"/>
    </g>
  </g>
</svg>
