<svg xmlns="http://www.w3.org/2000/svg" width="23.284" height="21.344" viewBox="0 0 23.284 21.344">
  <path id="iconfinder_shopping_bag_2639752" d="M26.238,22.992,24.344,5.94A1.94,1.94,0,0,0,22.4,4H6.881A1.94,1.94,0,0,0,4.94,5.94L3.046,22.992A1.979,1.979,0,0,0,3,23.4a1.94,1.94,0,0,0,1.94,1.94h19.4a1.94,1.94,0,0,0,1.94-1.94A1.979,1.979,0,0,0,26.238,22.992ZM19.493,8.762V9.821a4.851,4.851,0,0,1-9.7,0V8.762A1.453,1.453,0,1,1,11.731,7.4V9.821a2.91,2.91,0,1,0,5.821,0V7.4a1.455,1.455,0,1,1,1.94,1.366Z" transform="translate(-3 -4)" fill="#979797"/>
</svg>
