<svg xmlns="http://www.w3.org/2000/svg" width="31.796" height="32.31" viewBox="0 0 31.796 32.31">
  <path id="iconfinder_city_8_3078501" d="M50.305,19.621v5.624a3.271,3.271,0,0,1-3.085,3.312,3.125,3.125,0,0,1-2.307-.889,3.16,3.16,0,0,1-.964-2.287,3.181,3.181,0,1,1-6.361,0,3.181,3.181,0,0,1-6.361,0,3.181,3.181,0,0,1-6.361,0,3.165,3.165,0,0,1-3.271,3.176,3.271,3.271,0,0,1-3.085-3.312V19.621A1.621,1.621,0,0,1,20.13,18H48.684A1.621,1.621,0,0,1,50.305,19.621ZM45.923,50.31a1.424,1.424,0,0,0,1.424-1.424V30.571h-.257a5.119,5.119,0,0,1-3.145-1.085,5.2,5.2,0,0,1-6.356,0,5.2,5.2,0,0,1-6.361,0,5.2,5.2,0,0,1-6.356,0,5.185,5.185,0,0,1-3.165,1.08h-.237V48.887a1.424,1.424,0,0,0,1.424,1.424h3.186V40.122h7.739V50.31Z" transform="translate(-18.509 -18)" fill="#979797"/>
</svg>
