<svg xmlns="http://www.w3.org/2000/svg" width="28.932" height="28.886" viewBox="0 0 28.932 28.886">
  <g id="icons" transform="translate(-1.984 -2)">
    <g id="user" transform="translate(1.984 2)">
      <ellipse id="Ellipse_16" data-name="Ellipse 16" cx="7.222" cy="8.666" rx="7.222" ry="8.666" transform="translate(7.244)" fill="#979797"/>
      <path id="Path_173" data-name="Path 173" d="M30.6,21.028a13.163,13.163,0,0,0-6.933-6.066,3.234,3.234,0,0,0-2.6.144,8.867,8.867,0,0,1-9.244,0,3.25,3.25,0,0,0-2.6,0A13.163,13.163,0,0,0,2.3,21.173,2.851,2.851,0,0,0,5.04,25.217H27.86A2.925,2.925,0,0,0,30.6,21.028Z" transform="translate(-1.984 3.67)" fill="#979797"/>
    </g>
  </g>
</svg>
