<svg xmlns="http://www.w3.org/2000/svg" width="21.112" height="30.443" viewBox="0 0 21.112 30.443">
  <g id="Group_4682" data-name="Group 4682" transform="translate(-1875.187 -440.265)">
    <path id="گزارش" d="M14.462,0c3.387,0,5.273,1.756,5.273,4.766V14.959c0,3.059-1.886,4.776-5.273,4.776H5.274C1.941,19.735,0,18.018,0,14.959V4.766C0,1.756,1.941,0,5.274,0ZM5.57,13.558a.894.894,0,0,0-.822.365.718.718,0,0,0,0,.829.887.887,0,0,0,.822.355h8.6a.775.775,0,0,0,0-1.549Zm8.6-4.5H5.57a.774.774,0,1,0,0,1.54h8.6a.774.774,0,1,0,0-1.54ZM8.847,4.588H5.57V4.6a.816.816,0,0,0-.855.77.816.816,0,0,0,.855.77H8.847A.819.819,0,0,0,9.7,5.357.817.817,0,0,0,8.847,4.588Z" transform="translate(1876.421 450.973)" fill="#979797"/>
    <path id="Path_156" data-name="Path 156" d="M20.154,5.928V8.045a1.059,1.059,0,0,1-1.8.741L16.026,6.457A11.133,11.133,0,0,1,9.57,8.468,11.857,11.857,0,0,1,.149,3.811,1.132,1.132,0,0,1,1.1,2.117h0a1.079,1.079,0,0,1,.847.529c1.376,1.8,3.811,2.646,6.563,2.646a9.785,9.785,0,0,0,5.081-1.27L11.369,1.8A1.059,1.059,0,0,1,12.11,0H19.1a1,1,0,0,1,1.058,1.058V5.928Z" transform="translate(1895.191 451.741) rotate(-173)" fill="#979797"/>
  </g>
</svg>
