<svg xmlns="http://www.w3.org/2000/svg" xmlns:xlink="http://www.w3.org/1999/xlink" width="51.482" height="51.482" viewBox="0 0 51.482 51.482">
  <defs>
    <filter id="Path_159" x="0" y="0" width="51.482" height="51.482" filterUnits="userSpaceOnUse">
      <feOffset input="SourceAlpha"/>
      <feGaussianBlur stdDeviation="5" result="blur"/>
      <feFlood flood-color="#74f181" flood-opacity="0.569"/>
      <feComposite operator="in" in2="blur"/>
      <feComposite in="SourceGraphic"/>
    </filter>
  </defs>
  <g id="Group_4846" data-name="Group 4846" transform="translate(15 15)">
    <g id="Group_4844" data-name="Group 4844" transform="translate(0 0)">
      <g transform="matrix(1, 0, 0, 1, -15, -15)" filter="url(#Path_159)">
        <path id="Path_159-2" data-name="Path 159" d="M64.982,61.435h0l-2.14-2.14c.034-.055.067-.112.1-.168a10.415,10.415,0,1,0-3.814,3.814c.056-.033.112-.065.168-.1l2.14,2.14Zm-9.322-1.96a5.817,5.817,0,1,1,3.815-3.815A5.8,5.8,0,0,1,55.66,59.475Z" transform="translate(-28.5 -28.5)" fill="#74f181"/>
      </g>
    </g>
    <g id="Group_4845" data-name="Group 4845" transform="translate(19.44 19.44)">
      <path id="Path_160" data-name="Path 160" d="M343.873,340.316l-4.546-4.546-3.547,3.548h0l4.546,4.546a2.508,2.508,0,1,0,3.548-3.547Z" transform="translate(-335.78 -335.77)" fill="#74f181"/>
    </g>
  </g>
</svg>
