<svg xmlns="http://www.w3.org/2000/svg" width="29.432" height="29.432" viewBox="0 0 29.432 29.432">
  <path id="تنظیمات" d="M15.827,0a3.372,3.372,0,0,1,2.818,1.53,2.518,2.518,0,0,1,.427,1.56,2.188,2.188,0,0,0,.364,1.3A3.15,3.15,0,0,0,23.426,5.4a3.369,3.369,0,0,1,4.448,1.118l1.061,1.737a2.905,2.905,0,0,1-1.172,4.165A2.608,2.608,0,0,0,26.751,16.1a2.338,2.338,0,0,0,.981.942A3.493,3.493,0,0,1,29.014,18.2a2.843,2.843,0,0,1-.032,3.017l-1.108,1.766a3.336,3.336,0,0,1-2.8,1.53,3.438,3.438,0,0,1-1.678-.441A2.629,2.629,0,0,0,22,23.737a2.892,2.892,0,0,0-2.929,2.678A3.131,3.131,0,0,1,15.8,29.432H13.643a3.136,3.136,0,0,1-3.293-3.017,2.866,2.866,0,0,0-2.913-2.678,2.558,2.558,0,0,0-1.393.338,3.483,3.483,0,0,1-1.678.441,3.343,3.343,0,0,1-2.818-1.53L.455,21.221A2.81,2.81,0,0,1,.424,18.2,3.211,3.211,0,0,1,1.69,17.041a2.474,2.474,0,0,0,1-.942A2.626,2.626,0,0,0,1.659,12.42,2.929,2.929,0,0,1,.487,8.256L1.548,6.519A3.389,3.389,0,0,1,6.012,5.4,3.134,3.134,0,0,0,9.986,4.385a2.188,2.188,0,0,0,.364-1.3,2.529,2.529,0,0,1,.443-1.56A3.438,3.438,0,0,1,13.6,0ZM14.735,10.566a4.332,4.332,0,0,0-4.5,4.165,4.32,4.32,0,0,0,4.5,4.15,4.277,4.277,0,0,0,4.448-4.15A4.289,4.289,0,0,0,14.735,10.566Z" fill="#979797"/>
</svg>
