<svg xmlns="http://www.w3.org/2000/svg" width="34.731" height="32.562" viewBox="0 0 34.731 32.562">
  <g id="box" transform="translate(0 -15.99)">
    <g id="Group_4876" data-name="Group 4876" transform="translate(0 15.99)">
      <g id="Group_4875" data-name="Group 4875">
        <path id="Path_174" data-name="Path 174" d="M34.56,32.724,30.8,27.184l3.762-5.541a1.017,1.017,0,0,0-.525-1.529l-12.278-4.07a1.012,1.012,0,0,0-1.169.4L17.365,21.28l-3.223-4.835a1.012,1.012,0,0,0-1.169-.4L.7,20.114a1.017,1.017,0,0,0-.525,1.529l3.762,5.541L.171,32.724A1.017,1.017,0,0,0,.7,34.254l12.278,4.07a1.017,1.017,0,0,0,1.169-.4l3.223-4.835,3.223,4.835a1.017,1.017,0,0,0,1.169.4l12.278-4.07a1.017,1.017,0,0,0,.525-1.529ZM17.365,30.182l-8.994-3,8.994-3,8.994,3Z" transform="translate(0 -15.99)" fill="#979797"/>
      </g>
    </g>
    <g id="Group_4878" data-name="Group 4878" transform="translate(4.138 36.757)">
      <g id="Group_4877" data-name="Group 4877">
        <path id="Path_175" data-name="Path 175" d="M79.265,325.636a3.05,3.05,0,0,1-3.506-1.2l-1.53-2.3-1.53,2.3a3.049,3.049,0,0,1-3.511,1.2L61,322.9v5.94a1.016,1.016,0,0,0,.7.965l12.2,4.068a.919.919,0,0,0,.11.031,0,0,0,0,1,0,0h0a1.059,1.059,0,0,0,.216.023,1.036,1.036,0,0,0,.228-.026c.034-.008.067-.017.1-.028l12.205-4.069a1.017,1.017,0,0,0,.7-.965V322.9Z" transform="translate(-61.002 -322.138)" fill="#979797"/>
      </g>
    </g>
  </g>
</svg>
